# This file uses centimeters as units for non-parametric coordinates.

mtllib woodenfloor.mtl
g default
v -10.997048 0.081393 13.039217
v -10.683612 0.081393 13.039217
v -10.683612 0.081393 -12.174016
v -10.997048 0.081393 -12.174016
v 10.970552 0.000000 13.039217
v 10.970552 0.000000 -12.174016
v -10.683612 0.000000 -12.174016
v -10.683612 0.000000 13.039217
v -10.997048 0.000000 -12.174016
v -10.997048 0.000000 13.039217
vt 0.019800 0.903900
vt 0.019800 0.892300
vt 0.950200 0.892300
vt 0.950200 0.903900
vt 0.019800 0.020400
vt 0.950300 0.020400
vt 0.950300 0.819500
vt 0.019800 0.819500
vt 0.950200 0.906900
vt 0.019800 0.906900
vt 0.095200 0.979600
vt 0.083700 0.979600
vt 0.083700 0.976600
vt 0.095200 0.976600
vt 0.019800 0.889300
vt 0.950200 0.889300
vt 0.019800 0.976600
vt 0.031400 0.976600
vt 0.031400 0.979600
vt 0.019800 0.979600
vn 0.000000 1.000000 0.000000
vn 0.000000 1.000000 0.000000
vn 0.000000 1.000000 0.000000
vn 0.000000 1.000000 0.000000
vn 0.000000 1.000000 0.000000
vn 0.000000 1.000000 0.000000
vn 0.000000 1.000000 0.000000
vn 0.000000 1.000000 0.000000
vn -1.000000 0.000000 -0.000000
vn -1.000000 0.000000 -0.000000
vn -1.000000 0.000000 -0.000000
vn -1.000000 0.000000 -0.000000
vn 0.000000 0.000000 1.000000
vn 0.000000 0.000000 1.000000
vn 0.000000 0.000000 1.000000
vn 0.000000 0.000000 1.000000
vn 1.000000 0.000000 0.000000
vn 1.000000 0.000000 0.000000
vn 1.000000 0.000000 0.000000
vn 1.000000 0.000000 0.000000
vn 0.000000 0.000000 -1.000000
vn 0.000000 0.000000 -1.000000
vn 0.000000 0.000000 -1.000000
vn 0.000000 0.000000 -1.000000
s off
g house_interior:Plane001 group1
usemtl phongE1SG
f 1/1/1 2/2/2 3/3/3 4/4/4
f 5/5/5 6/6/6 7/7/7 8/8/8
f 9/9/9 10/10/10 1/1/11 4/4/12
f 10/11/13 8/12/14 2/13/15 1/14/16
f 8/15/17 7/16/18 3/3/19 2/2/20
f 7/17/21 9/18/22 4/19/23 3/20/24
