{
  "accessors": [
    {
      "bufferView": 0,
      "componentType": 5125,
      "count": 750,
      "type": "SCALAR"
    },
    {
      "bufferView": 1,
      "componentType": 5126,
      "count": 432,
      "max": [
        0.99999988079071,
        0.478697657585144,
        0.0016976447077468
      ],
      "min": [
        -1.0,
        -0.478697597980499,
        -0.0016976447077468
      ],
      "type": "VEC3"
    },
    {
      "bufferView": 2,
      "componentType": 5126,
      "count": 432,
      "type": "VEC3"
    },
    {
      "bufferView": 3,
      "componentType": 5126,
      "count": 432,
      "type": "VEC2"
    }
  ],
  "asset": {
    "generator": "Substance Painter 2018.1.0",
    "version": "2.0"
  },
  "bufferViews": [
    {
      "buffer": 0,
      "byteLength": 3000,
      "target": 34963
    },
    {
      "buffer": 0,
      "byteLength": 5184,
      "byteOffset": 3000,
      "target": 34962
    },
    {
      "buffer": 0,
      "byteLength": 5184,
      "byteOffset": 8184,
      "target": 34962
    },
    {
      "buffer": 0,
      "byteLength": 3456,
      "byteOffset": 13368,
      "target": 34962
    }
  ],
  "buffers": [
    {
      "byteLength": 16824,
      "uri": "PBR - Metallic Roughness.bin"
    }
  ],
  "images": [
    {
      "uri": "lambert4_baseColor.png"
    },
    {
      "uri": "lambert4_occlusionRoughnessMetallic.png"
    },
    {
      "uri": "lambert4_normal.png"
    }
  ],
  "materials": [
    {
      "alphaMode": "OPAQUE",
      "name": "lambert4",
      "normalTexture": {
        "index": 2
      },
      "occlusionTexture": {
        "index": 1
      },
      "pbrMetallicRoughness": {
        "baseColorTexture": {
          "index": 0
        },
        "metallicRoughnessTexture": {
          "index": 1
        }
      }
    }
  ],
  "meshes": [
    {
      "name": "house_interior:Plane003",
      "primitives": [
        {
          "attributes": {
            "NORMAL": 2,
            "POSITION": 1,
            "TEXCOORD_0": 3
          },
          "indices": 0,
          "material": 0,
          "mode": 4
        }
      ]
    }
  ],
  "nodes": [
    {
      "children": [
        1
      ],
      "name": "root",
      "scale": [
        8.39835929870605,
        8.39835929870605,
        8.39835929870605
      ],
      "translation": [
        -2.60624122619629,
        3.93424367904663,
        -12.200403213501
      ]
    },
    {
      "children": [
        2
      ],
      "name": "house_interior:Plane003"
    },
    {
      "mesh": 0,
      "name": "house_interior:Plane003"
    }
  ],
  "samplers": [
    {
      "magFilter": 9729,
      "minFilter": 9985,
      "wrapS": 10497,
      "wrapT": 10497
    }
  ],
  "scene": 0,
  "scenes": [
    {
      "name": "Scene",
      "nodes": [
        0
      ]
    }
  ],
  "textures": [
    {
      "sampler": 0,
      "source": 0
    },
    {
      "sampler": 0,
      "source": 1
    },
    {
      "sampler": 0,
      "source": 2
    }
  ]
}