# This file uses centimeters as units for non-parametric coordinates.

mtllib ceiling.mtl
g default
v -14.516485 11.607900 16.310065
v -6.931764 11.607900 16.310065
v 5.709438 11.607900 16.310065
v 10.765918 11.607900 16.310065
v -14.516485 11.607900 6.197103
v -6.931764 11.607900 6.197103
v 5.709438 11.607900 6.197103
v 10.765918 11.607900 6.197103
v -14.516485 11.607900 -1.387617
v -6.931764 11.607900 -1.387617
v 5.709438 11.607900 -1.387617
v 10.765918 11.607900 -1.387617
v -14.516485 11.607900 -8.972339
v -6.931764 11.607900 -8.972339
v 5.709438 11.607900 -8.972339
v 10.765918 11.607900 -8.972339
v -6.506555 10.910737 5.941978
v 5.284230 10.910737 5.941978
v -6.506555 10.910737 -1.132492
v 5.284230 10.910737 -1.132492
vt 0.000000 0.000000
vt 0.300000 0.000000
vt 0.800000 0.000000
vt 1.000000 0.000000
vt 0.000000 0.400000
vt 0.300000 0.400000
vt 0.800000 0.400000
vt 1.000000 0.400000
vt 0.000000 0.700000
vt 0.300000 0.700000
vt 0.800000 0.700000
vt 1.000000 0.700000
vt 0.000000 1.000000
vt 0.300000 1.000000
vt 0.800000 1.000000
vt 1.000000 1.000000
vt 0.300000 0.400000
vt 0.800000 0.400000
vt 0.300000 0.700000
vt 0.800000 0.700000
vn 0.000000 -1.000000 0.000000
vn 0.000000 -1.000000 0.000000
vn 0.000000 -1.000000 0.000000
vn 0.000000 -1.000000 0.000000
vn 0.000000 -1.000000 0.000000
vn 0.000000 -1.000000 0.000000
vn 0.000000 -1.000000 0.000000
vn 0.000000 -1.000000 0.000000
vn 0.000000 -1.000000 0.000000
vn 0.000000 -1.000000 0.000000
vn 0.000000 -1.000000 0.000000
vn 0.000000 -1.000000 0.000000
vn 0.000000 -1.000000 0.000000
vn 0.000000 -1.000000 0.000000
vn 0.000000 -1.000000 0.000000
vn 0.000000 -1.000000 0.000000
vn 0.000000 -1.000000 0.000000
vn 0.000000 -1.000000 0.000000
vn 0.000000 -1.000000 0.000000
vn 0.000000 -1.000000 0.000000
vn -0.853737 -0.520704 0.000000
vn -0.853737 -0.520704 0.000000
vn -0.853737 -0.520704 0.000000
vn -0.853737 -0.520704 0.000000
vn 0.000000 -0.343659 0.939095
vn 0.000000 -0.343659 0.939095
vn 0.000000 -0.343659 0.939095
vn 0.000000 -0.343659 0.939095
vn 0.000000 -0.343659 -0.939094
vn 0.000000 -0.343659 -0.939095
vn 0.000000 -0.343659 -0.939095
vn 0.000000 -0.343659 -0.939094
vn 0.853737 -0.520705 0.000000
vn 0.853737 -0.520705 0.000000
vn 0.853737 -0.520705 0.000000
vn 0.853737 -0.520705 0.000000
s 1
g pPlane2
usemtl lambert13SG
f 6/6/1 2/2/2 1/1/3 5/5/4
f 8/8/5 4/4/6 3/3/7 7/7/8
f 7/7/8 3/3/7 2/2/2 6/6/1
f 10/10/9 6/6/1 5/5/4 9/9/10
f 12/12/11 8/8/5 7/7/8 11/11/12
s off
f 19/19/13 20/20/14 18/18/15 17/17/16
s 1
f 13/13/17 14/14/18 10/10/9 9/9/10
f 15/15/19 16/16/20 12/12/11 11/11/12
f 14/14/18 15/15/19 11/11/12 10/10/9
s off
f 17/17/21 6/6/22 10/10/23 19/19/24
f 17/17/25 18/18/26 7/7/27 6/6/28
f 19/19/29 10/10/30 11/11/31 20/20/32
f 18/18/33 20/20/34 11/11/35 7/7/36
