# This file uses centimeters as units for non-parametric coordinates.

mtllib floor.mtl
g default
v -14.553481 0.025644 12.893668
v 10.282060 0.025644 12.893668
v -14.553481 0.025644 -7.507092
v 10.282060 0.025644 -7.507092
vt -0.281529 -0.360855
vt 1.061700 -0.360855
vt 1.061700 1.360856
vt -0.281529 1.360856
vn 0.000000 1.000000 0.000000
vn 0.000000 1.000000 0.000000
vn 0.000000 1.000000 0.000000
vn 0.000000 1.000000 0.000000
s off
g pPlane1
usemtl initialShadingGroup
f 1/1/1 2/2/2 4/3/3 3/4/4
